<?xml version="1.0" encoding="UTF-8"?><svg id="thai-noodles" xmlns="http://www.w3.org/2000/svg" viewBox="0 0 392.3 369.8"><path id="bowl-o-noodles" d="m291.61,112.91c8.51-8.51,22.32-8.51,30.83,0s8.51,22.32,0,30.83-22.32,8.51-30.83,0-8.51-22.32,0-30.83Zm-11.51,65.09c.1-.8.2-1.7.2-2.6,0-12-9.7-21.8-21.8-21.8-.6,0-1.2,0-1.7.1V42.2l8-.1v-3.1l.9-8.5L2.7,0,.8,17.8l137.2,12L0,27.8v18l147.1-2.1v84.9c-6,3.1-11.2,7.3-15.3,12.4.6-4.8-.1-8.9-.9-11.6,3.4-9.8,2.8-21-2.5-30.9-5.9-10.8-16.3-17.6-27.6-19.4-4.6,10.5-4.4,22.9,1.5,33.7,5.7,10.4,15.4,17,26.2,19.1,1.4,6.5,1.4,18.9-13.1,30.3l1.9,2.4c3.3-2.6,5.9-5.3,8-7.9,6.6,4,14.1,6.5,21.9,7v14.3H28.8l73,158.8c3.6,7.8,11.4,12.8,20,12.8h14v20.2h149.5v-20.2h14c8.6,0,16.4-5,20-12.8l73-158.8h-112.2Zm-94-30.2c4.3-4.8,7.6-10.4,9.7-16.5-3-2-6.3-3.7-9.7-5V43.2l14.7-.2v135.1h-14.7v-30.3Zm17.6,30.2V42.9l14.7-.2v135.3h-14.7Zm32.4,0h-14.7V42.7l14.7-.2v135.5Zm-53-134.8v82.2c-4.7-1.4-9.6-2.2-14.7-2.1V43.4l14.7-.2Zm-14.7,117.1c5.6-2.3,10.5-5.5,14.7-9.4v27.2h-14.7v-17.8Zm85.3-6.1c-6.4,1.4-11.8,5.7-14.7,11.4V42.4l14.7-.2v112Zm-103.6-110.5l15.3-.2v80c-3.9.3-7.8,1.1-11.7,2.4-1.2.4-2.4.9-3.6,1.4V43.7Zm0,120.1c5.1,0,10.2-.8,15.3-2.4v16.7h-15.3v-14.3Z" fill="#3d3d3d" stroke-width="0"/></svg>