<svg xmlns="http://www.w3.org/2000/svg" viewBox="0 0 60 60" id="abstract">
  <path d="M59 0H1a1 1 0 0 0-1 1v58a1 1 0 0 0 1 1h58a1 1 0 0 0 1-1V1a1 1 0 0 0-1-1zm-1 58H2V2h56v56z"></path>
  <path d="M47 37H17a1 1 0 1 0 0 2h29v3a1 1 0 1 0 2 0v-4a1 1 0 0 0-1-1z"></path>
  <path d="M13 43h13.059c.499 4.493 4.316 8 8.941 8 4.963 0 9-4.037 9-9a1 1 0 0 0-1-1H14v-6h33a1 1 0 1 0 0-2H13a1 1 0 0 0-1 1v8a1 1 0 0 0 1 1zm22 2a2 2 0 0 0 2-2h4.92c-.488 3.386-3.401 6-6.92 6s-6.432-2.614-6.92-6H33a2 2 0 0 0 2 2zm12-32H17a1 1 0 1 0 0 2h29v3a1 1 0 1 0 2 0v-4a1 1 0 0 0-1-1z"></path>
  <path d="M13 19h30a1 1 0 1 0 0-2H14v-6h33a1 1 0 1 0 0-2H13a1 1 0 0 0-1 1v8a1 1 0 0 0 1 1zm0 8h30a1 1 0 1 0 0-2H14v-3a1 1 0 1 0-2 0v4a1 1 0 0 0 1 1z"></path>
  <path d="M13 31h34a1 1 0 0 0 1-1v-8a1 1 0 0 0-1-1H17a1 1 0 1 0 0 2h29v6H13a1 1 0 1 0 0 2z"></path>
</svg>
