<?xml version="1.0" encoding="UTF-8"?>
<svg xmlns="http://www.w3.org/2000/svg" version="1.1" viewBox="0 0 20 20">
  <!-- Generator: Adobe Illustrator 28.6.0, SVG Export Plug-In . SVG Version: 1.2.0 Build 709)  -->
  <g>
    <g id="Layer_1">
      <path d="M16.7,17.4c4.1-3.7,4.4-10,.7-14.1C13.7-.8,7.4-1.1,3.3,2.6-.8,6.3-1.1,12.6,2.6,16.7c1.9,2.1,4.6,3.3,7.4,3.3.3,0,.6,0,.9,0,2.2-.2,4.2-1.1,5.8-2.5h0s0,0,0,0ZM10,2c4.4,0,8,3.6,8,8,0,1.8-.6,3.6-1.8,5.1-.4-.5-.8-.9-1.3-1.3-1.4-1.1-3.1-1.7-4.9-1.7-2.4,0-4.7,1.1-6.2,3.1-1.2-1.4-1.8-3.2-1.8-5.1,0-4.4,3.6-8,8-8Z"/>
      <circle cx="10" cy="7" r="4"/>
    </g>
  </g>
</svg>