<svg xmlns="http://www.w3.org/2000/svg" enable-background="new 0 0 250 250" viewBox="0 0 250 250" id="antique-frame">
  <path d="M202.5649 157.0807c1.4832.7685 2.8173 1.7153 3.9315 2.8711 1.1501 1.1254 2.0948 2.455 2.7907 3.9318.7317 1.4934.9089 3.1101 1.2889 4.7107.1798.8142.326 1.6477.4416 2.5093.082.8608.1662 1.7446.2548 2.6748l.2046.0217c.9873-1.7456 1.2458-3.7815 1.1267-5.6716-.0838-1.915-.9906-3.6357-1.9162-5.1313-.955-1.5098-2.1519-2.7779-3.5178-3.8106-1.3957-1.0127-2.9314-1.791-4.539-2.2851L202.5649 157.0807zM214.8916 165.6293c.3319.5979.7865 1.1365 1.385 1.3645.6395.2339 1.384.0967 1.9986-.3505.5917-.4434 1.0384-1.1871 1.1868-1.9471.5966.7703 1.6715 1.2327 2.647 1.1082.7427-.0884 1.4659-.4932 2.0325-1.0859-.0403-.8394-.3146-1.6275-.7953-2.1739-.6319-.7436-1.7356-1.1323-2.7074-.9531.417-.6689.5952-1.5039.469-2.2358-.1729-.7369-.6421-1.3531-1.2773-1.5972-.5944-.2432-1.2854-.1458-1.9252.0893-.6169.2315-1.2413.5718-1.868.8438-1.7743.7974-3.6779 1.0435-5.5122.7871 1.5548 1.0479 2.8153 2.5117 3.5614 4.2661C214.3611 164.3754 214.5692 165.0352 214.8916 165.6293z"></path>
  <path d="M202.1966 168.2625c-.5119-1.1237-1.7979-1.7316-3.0133-1.7629-1.2567-.0488-2.4914.5505-3.258 1.4297-.8463.8564-1.2799 2.0205-1.3299 3.2519-.0803 1.2203.1997 2.448.8006 3.5503.5815 1.0979 1.4729 2.0979 2.607 2.7427 1.1369.6402 2.4046.9082 3.6878.8316 1.2802-.0767 2.5968-.4847 3.7052-1.23 1.1253-.7842 2.0871-1.8101 2.7198-3.0015.6276-1.1951 1.0097-2.5049 1.1225-3.7832.1278-2.6753-.8661-4.9375-2.1266-6.6587-2.544-3.4673-5.7924-6.123-9.4668-7.977 1.4737 1.3676 2.8551 2.8178 4.1186 4.3654.6308.7737 1.2362 1.573 1.8012 2.3953.5451.813 1.0564 1.6519 1.5304 2.5173.8772 1.7063 1.5623 3.5384 1.2597 5.2308-.2332 1.7255-1.1339 3.4233-2.5119 4.2819-1.3297.9324-3.1261 1.1355-4.4796.49-1.3537-.5722-2.3542-2.1435-2.4814-3.6587-.1247-1.4658.8401-3.124 2.3974-3.3523.7799-.1325 1.6769.1038 2.2146.7659.5282.666.7488 1.7842.1864 2.686C202.511 170.6931 202.7024 169.3228 202.1966 168.2625zM212.563 155.3698c-1.4593.6455-3.0987.9824-4.7163 1.0542-1.6163.105-3.2466-.0989-4.8534-.5093l-.066.1792c1.5279.7124 3.1877 1.1529 4.8873 1.3423 1.713.1516 3.471.0098 5.2116-.4638 1.7093-.4825 3.429-1.1744 4.8415-2.5179 1.4285-1.3125 2.4483-3.0378 2.9816-4.968l-.1679-.1098c-1.4084 1.2641-2.6544 2.4043-3.9793 3.3691C215.3338 153.6862 214.05 154.7337 212.563 155.3698z"></path>
  <path d="M210.7624 154.0925c2.0655-.4287 4.4304-1.4185 6.0365-3.5147 1.6372-2.0112 2.3614-4.9209 1.7375-7.5857-.7587-2.6311-2.6618-4.6901-5.2019-5.2693-1.2728-.2744-2.6091-.1337-3.7867.2881-1.185.4034-2.258 1.1299-2.9994 2.0835-.7219.9602-1.249 2.1128-1.2069 3.3057-.0036.5913.1366 1.2065.3996 1.7769.2487.5668.6031 1.0849 1.0805 1.4858.9109.7895 2.2738 1.1914 3.4198.7143 1.1286-.437 1.8434-1.5952 1.68-2.6621-.1908 1.0454-1.0351 1.7427-1.8999 1.8765-.8496.1187-1.6626-.2952-2.152-.9272-1.0684-1.2193-.634-3.0909.4734-4.0987 1.0671-1.0366 2.8567-1.541 4.2499-1.0439 1.4019.4245 2.7164 1.8022 3.0181 3.3742.365 1.5447.0351 3.4383-1.0133 4.8484-.9926 1.4473-2.5764 2.3887-4.4358 3.0476-1.8878.6424-3.8115 1.1048-5.7595 1.4139-1.9538.3068-3.9985.4384-6.0152.4585C202.3418 154.746 206.639 155.0002 210.7624 154.0925zM179.4347 189.6337c.9536 1.3689 1.7027 2.8387 2.1471 4.375.4939 1.5315.7113 3.1473.6399 4.7781-.0475 1.6602-.6396 3.1768-1.0475 4.7695-.2198.8025-.4748 1.6133-.776 2.4231-.3263.8016-.6612 1.6238-1.0135 2.4891l.1711.1142c1.6803-1.0893 2.8592-2.7651 3.63-4.4966.8147-1.7343.8117-3.6792.6888-5.4321-.1449-1.783-.6078-3.4539-1.3448-5.0137-.7633-1.5449-1.7596-2.9485-2.9527-4.1342L179.4347 189.6337zM186.3717 202.9386c.0157.6831.1678 1.3711.5915 1.8515.4572.5044 1.1803.7295 1.9322.6206.7298-.1167 1.4707-.5659 1.9552-1.1689.1701.959.9065 1.8682 1.8277 2.2124.6991.2681 1.5178.2375 2.2993-.0164.355-.759.4792-1.5822.3083-2.2893-.2129-.9507-1.0086-1.8091-1.9522-2.104.6771-.3999 1.2362-1.0403 1.4486-1.7636.1894-.7325.0641-1.4932-.3847-2.0057-.4123-.4919-1.0697-.729-1.7464-.8208-.6573-.0861-1.3476-.0549-2.0381-.1167-1.9423-.1237-3.7429-.7937-5.2476-1.8757.8833 1.645 1.3262 3.5371 1.1699 5.4351C186.4852 201.5831 186.3625 202.2634 186.3717 202.9386z"></path>
  <path d="M172.0024 201.8844c1.06-.21 1.8598-1.3443 1.9055-2.5161.0683-1.2347-.788-2.3702-1.8499-2.961-1.092-.6289-2.4591-.6606-3.5538-.2475-1.1467.3686-2.0709 1.2021-2.6857 2.2719-.646 1.0298-.9595 2.2627-.9394 3.5152.0069 1.2441.3335 2.5439 1.0399 3.6401 1.4012 2.1738 4.0444 3.3242 6.7345 3.0742 1.3611-.1714 2.6811-.6455 3.8005-1.3955 1.1088-.7676 2.0539-1.7514 2.7462-2.8323 1.3589-2.3042 1.5282-4.7717 1.2126-6.882-.6388-4.2513-2.2771-8.1128-4.6664-11.4639.667 1.8962 1.2143 3.8232 1.612 5.7808.1985.9777.3611 1.9658.4798 2.958.1045.9736.1673 1.9541.1844 2.9414-.0143 1.9214-.2643 3.8545-1.3155 5.2153-.505.7085-1.1543 1.3325-1.8731 1.8057-.7203.4712-1.5433.7373-2.3385.8208-1.6073.2138-3.2945-.4414-4.1977-1.6475-.9367-1.1387-1.0857-2.9785-.4986-4.387.5653-1.3645 2.1967-2.3776 3.6817-1.8586.7525.2437 1.437.8691 1.6059 1.7056C173.2439 200.2551 172.9256 201.3571 172.0024 201.8844zM199.0646 191.2691c-1.8329.4624-3.4795.8785-5.105 1.1101-1.6198.221-3.2708.5227-4.8788.3958-1.5975-.1152-3.1851-.5596-4.6599-1.2598-1.4804-.6611-2.8292-1.601-4.0606-2.7129l-.1424.128c1.0202 1.3418 2.2845 2.5044 3.7013 3.4638 1.4461.9331 3.0694 1.6267 4.831 2.021 1.7197.3511 3.5816.5601 5.4566.0308 1.8444-.5225 3.5894-1.5376 4.9571-2.9998L199.0646 191.2691z"></path>
  <path d="M200.0334 180.7101c-.3647-1.2291-1.0716-2.3433-2.0584-3.1949-1.0019-.8379-2.241-1.3291-3.4612-1.4917-1.2116-.1777-2.5299-.0581-3.6333.4356-.5597.2422-1.0721.5718-1.5049.9775-.4423.3989-.8317.853-1.0961 1.3862-.573 1.0264-.6545 2.4429-.2065 3.5816.4344 1.1208 1.4524 2.1118 2.6922 2.2275 1.1883.128 2.3525-.5708 2.7215-1.5766-.6585.834-1.7534 1.0371-2.5595.7705-.7945-.2808-1.3346-1.0381-1.4798-1.8316-.3836-1.582.9326-2.9868 2.3283-3.4038 1.43-.416 3.2618-.0176 4.2586 1.0679 1.0536 1.0376 1.5196 2.8267 1.1087 4.4019-.4003 1.5341-1.6138 3.0239-3.1638 3.812-1.5525.8178-3.4245.8813-5.3468.6264-3.9452-.6299-7.6673-1.9467-11.2992-3.832 3.0066 2.8091 6.6712 5.0122 10.7519 6.1411 2.0459.6008 4.5664.7979 6.9804-.292.5901-.2602 1.1657-.5869 1.7104-.9707.5277-.3984 1.0148-.8628 1.4586-1.3701.8796-1.0215 1.5971-2.2075 1.8932-3.5706C200.414 183.2753 200.3857 181.9288 200.0334 180.7101zM140.4397 222.2863c1.529-1.1543 2.4305-2.8813 3.1369-4.49.7007-1.6438 1.0661-3.344 1.1399-5.0608.0417-1.7236-.1892-3.4292-.6945-5.0336l-.1852.0473c.2091 1.6563.188 3.2988-.1316 4.8687-.2741 1.5854-.8325 3.1176-1.654 4.528-.814 1.449-2.0438 2.5159-3.1464 3.7347-.568.6113-1.1722 1.2002-1.8147 1.79-.6626.5557-1.3424 1.1257-2.0578 1.7253l.0982.1814C137.1281 224.4025 138.9504 223.4532 140.4397 222.2863zM147.7482 228.7941c.4946.562 1.2366.9219 2.047 1.0557.6683-.5093 1.1617-1.1816 1.339-1.8872.2536-.9419-.0528-2.0713-.7522-2.77.7873-.0381 1.5779-.3565 2.1062-.8858.508-.5625.75-1.2954.5904-1.9575-.1372-.6274-.6098-1.1416-1.1668-1.5356-.5415-.3794-1.1719-.6861-1.7535-1.0542-1.6637-1.0098-2.9473-2.4385-3.7772-4.0948.0189 1.8716-.4696 3.7461-1.4908 5.355-.3636.584-.7885 1.1289-1.0946 1.7315-.3039.6123-.4893 1.2924-.3374 1.9145.1703.6592.7061 1.1944 1.4231 1.447.7008.2361 1.5667.1824 2.2763-.1267C146.8622 226.9142 147.0918 228.0616 147.7482 228.7941z"></path>
  <path d="M131.565 215.1398c1.0337.2832 2.2713-.3256 2.8567-1.3457.6349-1.0586.4054-2.4624-.2589-3.4814-.6731-1.0601-1.8683-1.7476-3.0262-1.8677-1.1858-.2134-2.3908.0874-3.4331.7427-1.0495.6499-1.9026 1.5537-2.4684 2.6777-.5742 1.1001-.8911 2.4004-.7775 3.7002.1184 1.2998.6176 2.4973 1.4091 3.5137.7901 1.0251 1.8722 1.854 3.1152 2.3481 1.2844.4805 2.6757.7041 4.0147.5362 1.3402-.1602 2.6356-.5882 3.7525-1.2193 2.2741-1.4192 3.5736-3.5132 4.2746-5.5327 1.4108-4.0613 1.7539-8.2422 1.1947-12.3196-.2898 1.9895-.6999 3.9495-1.2571 5.8675-.2786.959-.5938 1.9082-.9494 2.8437-.3601.9094-.7605 1.8067-1.2042 2.688-.9073 1.6865-2.0259 3.2974-3.591 4.0059-1.5539.7793-3.462 1.0146-4.9515.3623-1.5222-.564-2.7099-1.9466-2.9458-3.4053-.2974-1.436.4275-3.1758 1.6031-4.1265.5669-.4697 1.3305-.7407 2.0852-.7382.7544-.0005 1.4981.2075 2.0357.81.5522.5674.8667 1.4404.6266 2.2583C133.4218 214.2731 132.6255 215.0788 131.565 215.1398zM150.9202 215.0099c-1.3607-.8394-2.5648-1.9839-3.5438-3.2818-1.0038-1.272-1.7618-2.7304-2.3357-4.2866l-.1853.0474c.2807 1.6621.8601 3.2788 1.6692 4.7861.8472 1.4971 1.9624 2.8647 3.3402 4.0295 1.364 1.1219 2.9135 2.158 4.8214 2.5581 1.8836.4095 3.893.2957 5.7859-.3601l-.0049-.2006c-1.8425-.4468-3.4907-.8309-5.039-1.378C153.8849 216.3531 152.2864 215.8703 150.9202 215.0099z"></path>
  <path d="M157.5326 212.9317c-1.755.0044-3.4377-.79-5.0279-1.9233-3.2-2.377-5.8878-5.2817-8.2254-8.6357 1.3556 3.8769 3.5813 7.5449 6.6709 10.4311 1.5302 1.4712 3.6786 2.8315 6.3208 2.9766 1.2887.0888 2.6485-.0879 3.8944-.6045 1.2472-.5103 2.4418-1.21 3.3327-2.2852 1.7507-2.0913 2.3619-4.8286 1.3771-7.2803-.4997-1.207-1.3697-2.2158-2.3753-2.9238-1.0008-.7378-2.2162-1.2256-3.4241-1.3008-.6079-.0444-1.213.0144-1.7857.1719-.5838.1323-1.1328.3687-1.6151.7163-.9796.6524-1.7112 1.8623-1.8427 3.0752-.1338 1.1958.309 2.5459 1.3533 3.2212 1.0013.6836 2.3495.585 3.1432-.1333-.9688.437-2.0323.1118-2.6225-.4976-.5739-.6162-.7019-1.5376-.4633-2.3095.3938-1.5777 2.2017-2.2329 3.6399-1.9375 1.4589.2905 2.8966 1.4907 3.2777 2.9145.4511 1.4033.0432 3.2232-1.0584 4.4107C161.0362 212.1906 159.2784 212.9689 157.5326 212.9317zM94.1363 218.528c1.9123-.3847 3.4883-1.4228 4.8578-2.5141 1.3833-1.1348 2.5073-2.5152 3.3687-4.0015.8341-1.4998 1.4198-3.1143 1.7166-4.7725l-.1851-.0481c-.5802 1.5542-1.3623 3.0052-2.3797 4.2708-.9872 1.3101-2.1894 2.4009-3.5625 3.2412-1.3731.8447-2.9961 1.3389-4.5249 1.8701-1.5641.5298-3.2112.9146-5.0655 1.3316l.0025.2072C90.2486 218.7941 92.2691 218.8956 94.1363 218.528zM103.0365 199.8663c-.1624.5435.1026 1.1196.5824 1.2573 1.5353.3648 3.0429.8379 4.5952 1.1358.4988.101.9933-.2674 1.1077-.826l.1862-.9006c.016-.0781.0066-.1521.0072-.228 1.9394.4033 3.9.7563 5.898 1.0102 3.2316.4107 6.457.6138 9.6631.6138 4.8733 0 9.6959-.4829 14.4197-1.4075.0011.0686-.0097.1346.0039.2049l.177.9028c.1085.5596.6063.9272 1.0952.8291 1.5537-.271 3.0663-.7246 4.5981-1.0937.4951-.1143.7567-.6866.5986-1.2339l-.2531-.8846c-.021-.0727-.0617-.1294-.0939-.1936 9.1292-2.604 17.7729-6.9441 25.5078-12.9299.372-.2881.7249-.5942 1.0905-.8884.0351.0676.0602.1382.1101.2007l.5763.7168c.3562.4453.9685.5395 1.3562.2246 1.2508-.9629 2.381-2.0728 3.5721-3.1094.3875-.3306.3446-.9692-.0448-1.376l-.6346-.666c-.0535-.0559-.1164-.0876-.1756-.1301 7.3797-7.0086 13.1772-15.3401 17.1639-24.5469.0585.0396.1087.0874.1763.1169l.8437.3667c.5224.2281 1.1075.0271 1.3036-.4316.6576-1.4331 1.1463-2.9341 1.7074-4.4062.1848-.4732-.1249-1.0088-.6711-1.1919l-.8717-.2935c-.0738-.0247-.1466-.0237-.2201-.0334 1.5898-4.7251 2.725-9.6412 3.3677-14.698v-.0003c.6421-5.0549.7728-10.0967.4161-15.0669.0733.0093.1432.0286.2205.0232l.9176-.0664c.5745-.04 1.0078-.4902.948-.9858-.1755-1.5655-.2724-3.1416-.5508-4.6939-.0764-.5019-.5913-.834-1.1541-.7436l-.9087.144c-.0725.0117-.1328.0447-.1991.0679-1.5562-9.9126-5.0844-19.4302-10.4757-28.0623.068-.0261.1369-.0405.2027-.0813l.7812-.4861c.4788-.2961.6754-.9118.3878-1.321-.8938-1.3013-1.7101-2.6587-2.68-3.9041-.3018-.4084-.9127-.4636-1.369-.1218l-.7375.5503c-.0639.0479-.1062.1096-.1573.1663-.2807-.377-.5462-.7618-.8346-1.1346-5.9914-7.7309-13.276-14.092-21.4626-18.8972.0488-.0551.1039-.1008.1434-.1677l.4663-.793c.29-.4902.1722-1.1147-.2706-1.3447-1.3909-.7402-2.7414-1.5586-4.1778-2.209-.4568-.2217-1.0227.0139-1.2679.5288l-.3972.8296c-.0323.0677-.0397.1375-.0583.2068-7.2005-3.4448-14.9747-5.7683-23.1212-6.8035-1.9888-.2526-3.9741-.4045-5.9554-.5012.018-.0722.0458-.1399.0498-.218l.0448-.9185c.0291-.5693-.3665-1.0502-.8659-1.0761-1.5772-.1011-3.1554-.0191-4.7331-.0498-.5078.0132-.8994.5049-.8781 1.0713l.0327.9194c.003.0798.0295.1487.0468.2222-10.1154.3474-19.9766 2.7258-29.1049 6.9953-.0177-.0693-.024-.1394-.0554-.2073l-.3887-.8339c-.2398-.5171-.8117-.7539-1.263-.5401-1.4436.6407-2.809 1.4385-4.2083 2.168-.4538.231-.5716.8491-.2873 1.3428l.4576.7978c.0397.0691.0954.1175.1449.1743-3.0214 1.7347-5.9495 3.677-8.7529 5.8465-5.2592 4.0759-9.8758 8.7568-13.8128 13.9038-.0466-.0513-.0828-.1084-.1402-.1526l-.7307-.5586c-.4521-.3477-1.0697-.2935-1.3716.1045-.9887 1.2314-1.8114 2.5806-2.7241 3.8667-.2978.4121-.0987 1.0244.3748 1.3249l.7754.4954c.06.0381.1227.0513.1843.0769-5.3757 8.4155-9.0275 17.8818-10.7297 27.9565-.0704-.0268-.1353-.0627-.2129-.0759l-.907-.1543c-.5618-.0962-1.0773.2417-1.1527.7364l-.3623 2.3444-.2357 2.3616c-.0519.5068.3638.9541.932 1.0015l.9166.0776c.0796.0066.1524-.0115.2283-.0198-.8802 10.335.3847 20.4038 3.4456 29.7461-.0842.0078-.1674.0078-.2541.0359l-.8745.2852c-.5341.1728-.8766.7241-.6952 1.1894.5627 1.4724 1.0206 2.9854 1.6698 4.4248.1965.4685.7773.6675 1.3019.4444l.8473-.3584c.0836-.0357.1488-.0909.2188-.1409 3.9381 9.3127 9.6931 17.7454 16.896 24.7766-.0744.0469-.1512.0881-.2168.155l-.6427.6582c-.3988.4065-.4336 1.0413-.0586 1.3719 1.1723 1.0561 2.2937 2.1709 3.531 3.1518.3902.3257.9964.2339 1.3579-.207l.5851-.71c.0581-.0708.0908-.1506.1298-.228 7.6302 6.302 16.5526 11.1594 26.4062 14.0867-.0371.0688-.0816.1313-.1054.2107L103.0365 199.8663zM52.0588 117.201c2.4721-19.4575 12.3775-36.7944 27.8902-48.8169 13.0106-10.0686 28.6499-15.3869 44.8325-15.3869 3.1195 0 6.2621.1977 9.4071.5974 19.458 2.4726 36.795 12.3777 48.8164 27.8904 12.0099 15.5185 17.2623 34.781 14.7901 54.2395-2.4721 19.4575-12.3775 36.7944-27.8902 48.8166-15.5184 12.01-34.7783 17.2629-54.2396 14.7898C75.488 194.2258 46.9543 157.3824 52.0588 117.201zM97.6 227.6573c.1821.7085.6693 1.3823 1.3211 1.8906.8242-.1284 1.57-.4853 2.0526-1.0227.6609-.717.9129-1.8576.6187-2.8029.7137.332 1.5702.372 2.2837.1455.7082-.2525 1.261-.7827 1.4267-1.4427.1697-.6184-.0089-1.2981-.3175-1.9128-.3003-.6025-.7198-1.1479-1.0667-1.73-1.0179-1.6045-1.4747-3.5434-1.4441-5.3847-.8467 1.6503-2.1455 3.0717-3.8094 4.0756-.5991.3726-1.2193.6275-1.7691 1.0181-.5506.394-1.0283.9053-1.1823 1.5273-.1548.6641.0695 1.3941.5839 1.962.5036.561 1.3061.873 2.0815.914C97.6842 225.5925 97.3554 226.7155 97.6 227.6573z"></path>
  <path d="M84.3827 212.4514c.8863 1.0854 2.0699 1.8066 3.3161 2.3213.6261.2509 1.2711.4433 1.9231.559.6609.0943 1.3239.1228 1.9707.0874 1.3291-.0874 2.5183-.4155 3.5808-.9497 1.0666-.5444 1.9886-1.2387 2.7688-1.969 3.1109-2.8733 5.3706-6.4782 6.7702-10.3645-2.3845 3.3443-5.0883 6.1831-8.3203 8.5601-1.5912 1.0903-3.2909 1.895-5.0354 1.8752-1.7492-.0002-3.5072-.7785-4.5611-1.9631-1.0847-1.21-1.4787-3.0234-1.0117-4.4248.4047-1.4155 1.846-2.6055 3.3164-2.8787 1.4265-.2736 3.2327.3846 3.6193 1.9707.2221.7693.0945 1.6932-.4945 2.3006-.5966.6037-1.6635.9201-2.6289.4765.7854.7286 2.1396.8223 3.1394.168 1.0611-.6641 1.5074-2.0127 1.3849-3.208-.1186-1.2173-.8338-2.4429-1.8008-3.0933-.4824-.3545-1.0321-.5883-1.6095-.7334-.5681-.1655-1.1715-.226-1.7793-.1884-1.216.059-2.4301.5446-3.444 1.2614-1.0129.698-1.8938 1.6975-2.3973 2.9041-.4953 1.2017-.6256 2.5264-.3856 3.7744C82.943 210.1832 83.5292 211.3976 84.3827 212.4514zM105.2652 217.5681c.6907 1.6089 1.5678 3.3213 3.0745 4.5288 1.49 1.1465 3.2947 2.1469 5.285 2.3481l.0891-.1816c-1.4306-1.169-2.6977-2.3643-3.8128-3.5655l-1.6661-1.7871c-.5346-.6294-1.0335-1.2778-1.4364-1.9878-.8081-1.4111-1.3524-2.9419-1.622-4.5278-.3025-1.5786-.2914-3.2485-.0785-4.8916l-.1851-.0478c-.5218 1.6001-.7591 3.3046-.7433 5.0234C104.2206 214.2204 104.578 215.9312 105.2652 217.5681z"></path>
  <path d="M118.5486 218.5948c-1.4942.5967-3.3988.3452-4.9349-.4228-1.5578-.7896-2.6651-2.3599-3.5545-4.0557-.8756-1.7344-1.552-3.6675-2.094-5.5662-.5363-1.9255-.9348-3.8518-1.1929-5.8796-.6081 4.1113-.3047 8.2529 1.0747 12.3237.6624 2.0686 1.9538 4.1431 4.2107 5.5769 1.093.7181 2.3911 1.0843 3.7265 1.2654.6688.0796 1.3488.0969 2.0227.0322.6762-.0927 1.3452-.2592 1.9887-.5068 1.256-.5176 2.3473-1.2817 3.1507-2.2832.805-1.0159 1.3205-2.2134 1.4616-3.5132.1208-1.3003-.1784-2.6001-.7376-3.6992-.5418-1.0918-1.3896-2.0898-2.4228-2.7371-1.0343-.6711-2.2511-.9094-3.4265-.7915-1.1717.1106-2.3802.804-3.0672 1.8601-.6784 1.0176-.9145 2.42-.3009 3.4766.5741 1.023 1.8067 1.6201 2.8443 1.354-1.0597-.0776-1.8486-.8711-2.0873-1.6894-.2207-.816.0951-1.689.6654-2.2544 1.0824-1.1927 2.9888-.9136 4.1258-.0152 1.1551.9488 1.8673 2.688 1.5403 4.1223C121.2856 216.651 120.0787 218.0323 118.5486 218.5948zM68.938 188.3156l-.1405-.1294c-1.2375 1.1031-2.6045 2.0191-4.0921 2.6612-1.4706.6836-3.0732 1.1186-4.6698 1.2119-1.6103.1084-3.2563-.23-4.8744-.4549-1.6305-.2595-3.2564-.6941-5.0982-1.1814l-.0918.1827c1.3543 1.4746 3.0736 2.5214 4.9132 3.0507 1.8689.5518 3.7325.3829 5.4654.0435 1.7652-.3711 3.3883-1.0518 4.8452-1.9663C66.6305 190.7984 67.9012 189.6447 68.938 188.3156zM58.4505 196.6003c-.6947.0405-1.3941.0107-2.0509.0874-.6695.0908-1.3294.3193-1.7559.7983-.4468.5152-.5903 1.2666-.4023 2.0098.2046.7085.7566 1.3721 1.422 1.7712-.9383.2908-1.753 1.1311-1.9779 2.0799-.1709.7134-.0567 1.539.2796 2.2951.7829.2776 1.6104.3081 2.3023.0415.925-.3322 1.6814-1.2251 1.8543-2.1892.4856.6167 1.2117 1.0679 1.9483 1.2012.7413.1113 1.4756-.0967 1.93-.603.4383-.4678.5987-1.1546.6144-1.8447.0177-.6758-.0964-1.358-.1294-2.0376-.1401-1.9092.3178-3.7867 1.2254-5.4253C62.193 195.8474 60.385 196.4942 58.4505 196.6003z"></path>
  <path d="M50.9366 187.343c.8541 1.0429 1.9602 1.8488 3.1441 2.3823 2.3963 1.1225 4.921.9409 6.9756.3784 4.0834-1.082 7.7907-3.2427 10.8259-6.0102-3.6574 1.8317-7.4038 3.1108-11.3496 3.685-1.9337.2385-3.7964.1441-5.3319-.6846-1.5552-.8081-2.7409-2.3203-3.1233-3.8584-.3987-1.5742.0956-3.3627 1.1599-4.3867 1.016-1.0654 2.8457-1.4492 4.2759-1.0068 1.3928.4199 2.6829 1.8486 2.2874 3.4326-.1615.7847-.7049 1.543-1.5089 1.8062-.8091.2563-1.9004.0395-2.5475-.8038.3576 1.0093 1.5052 1.7291 2.7037 1.6084 1.2468-.0918 2.2703-1.0776 2.7194-2.1938.4582-1.1299.3938-2.5479-.1587-3.5762-.2623-.539-.6391-1.0034-1.0842-1.4004-.4269-.4111-.9336-.7456-1.49-.9951-1.104-.5146-2.4093-.6465-3.635-.4868-1.2222.148-2.4668.624-3.4728 1.4585-.9979.8354-1.7229 1.9443-2.096 3.165-.3675 1.2144-.4129 2.5616-.1471 3.8902C49.3644 185.1178 50.0749 186.3067 50.9366 187.343zM67.2347 205.9509c.5866.7886 1.3206 1.4531 2.1388 2.0298l.163-.1187c-.7003-1.7378-1.3303-3.2959-1.7232-4.9272-.3933-1.6099-.9651-3.1187-.9912-4.7813-.0508-1.6326.1867-3.2461.6917-4.7788.4676-1.5356 1.2329-2.9805 2.1972-4.3452l-.1405-.1299c-1.2074 1.1714-2.2136 2.5693-3.0034 4.0991-.748 1.5415-1.2298 3.2212-1.3949 5.001-.1479 1.7564-.1764 3.6856.6153 5.4326C66.1687 204.3046 66.6488 205.1608 67.2347 205.9509z"></path>
  <path d="M72.4859 206.6983c1.1136.76 2.4272 1.2525 3.7823 1.4366 2.6972.2863 5.3451-.8431 6.7779-2.9961.7088-1.0938 1.0496-2.3897 1.07-3.6333.0423-1.2471-.2658-2.4873-.8913-3.5181-.602-1.0767-1.5232-1.9248-2.6563-2.3018-1.099-.4262-2.4629-.414-3.5622.2027-1.0685.5781-1.9302 1.709-1.8852 2.9385.0318 1.1718.8155 2.319 1.8752 2.538-.9192-.5341-1.2218-1.6438-1.0553-2.4741.1872-.8286.8706-1.4516 1.6336-1.6806 1.4812-.5059 3.1018.5209 3.658 1.8984.5618 1.4097.4012 3.2524-.5567 4.3765-.9168 1.1962-2.6104 1.8315-4.2155 1.5996-.7947-.0926-1.6134-.3706-2.3293-.8462-.7119-.4815-1.3513-1.1123-1.8432-1.8247-1.0435-1.3804-1.2733-3.3111-1.2614-5.2368.0518-1.9654.3014-3.9219.7359-5.8887.4231-1.9527.9961-3.8721 1.69-5.7583-2.4295 3.3222-4.1231 7.1596-4.807 11.4111-.3415 2.0899-.2046 4.5798 1.1325 6.8931C70.4527 204.9205 71.3862 205.9167 72.4859 206.6983zM36.4836 155.9953c1.7387.4883 3.494.6372 5.2099.5015 1.7061-.1641 3.3673-.5982 4.9016-1.2954l-.0648-.1797c-1.6081.4043-3.2449.5835-4.8622.4634-1.6297-.0723-3.234-.4351-4.6955-1.0918-1.4757-.6512-2.7906-1.711-4.1076-2.6646-1.3238-.9873-2.5691-2.1269-3.9695-3.416l-.1693.1196c.5149 1.937 1.5633 3.6616 2.937 4.9878C33.0624 154.7775 34.8075 155.487 36.4836 155.9953zM34.5368 164.6187c.3277-.5908.5412-1.247.8257-1.8647.7547-1.7544 2.0504-3.2144 3.6037-4.2427-1.8379.239-3.7419-.0244-5.5083-.8266-.6424-.2837-1.2298-.6407-1.8515-.8763-.6361-.2297-1.3272-.3332-1.9272-.1066-.6345.249-1.1093.8483-1.2862 1.5952-.1643.7282.0329 1.5678.435 2.2309-.9672-.1767-2.0786.1905-2.7165.9265-.4812.553-.7612 1.3374-.812 2.1643.5766.605 1.2749 1.024 2.0144 1.1075.9751.1333 2.0589-.3077 2.6579-1.0821.1463.771.5826 1.5069 1.1752 1.9659.6068.4414 1.3551.5966 1.9923.3584C33.7445 165.7569 34.204 165.2227 34.5368 164.6187z"></path>
  <path d="M39.3929 150.8327c-1.8119-.6885-3.4288-1.6343-4.4035-3.0815-.9971-1.4395-1.3487-3.3299-.9717-4.8692.3778-1.5796 1.6509-2.9336 3.0688-3.3442 1.3952-.4702 3.1928.0415 4.2512 1.0972 1.0381 1.0185 1.5171 2.8803.4306 4.0986-.5076.6196-1.341 1.0386-2.1749.8984-.8357-.1484-1.7013-.8476-1.8829-1.8945-.1535 1.0601.5326 2.2295 1.6442 2.6802 1.148.497 2.5122.0991 3.4274-.6802.9297-.7876 1.5378-2.0728 1.5238-3.2378.0177-.5986-.0986-1.1841-.3101-1.7417-.1859-.5618-.4779-1.0928-.8537-1.5718-.7394-.9677-1.8233-1.6924-2.9948-2.1196-1.1487-.4385-2.4711-.5967-3.7503-.3262-2.5859.543-4.5126 2.5899-5.2676 5.2007-.3916 1.3457-.3106 2.729-.0296 4.0479.1496.6577.3526 1.2993.6328 1.9004.297.5976.6487 1.1601 1.0447 1.6723 1.6056 2.1074 3.9157 3.1206 6.005 3.572 4.1251.9331 8.3958.741 12.377-.3088C47.0628 152.7574 43.1678 152.1501 39.3929 150.8327zM38.0682 172.8c.0991-.9238.1937-1.8062.286-2.6655.13-.8623.2799-1.6914.4712-2.4986.3845-1.603.5963-3.2133 1.3383-4.6972.7085-1.4693 1.6645-2.7886 2.8203-3.9121 1.1177-1.1412 2.4864-2.0752 3.9678-2.836l-.0649-.1797c-1.6128.479-3.1519 1.2515-4.5595 2.2408-1.3971 1.0273-2.5849 2.2861-3.5578 3.7876-.9328 1.4829-1.8714 3.1889-1.9729 5.1005-.1297 1.896.1037 3.9361 1.0719 5.6897L38.0682 172.8z"></path>
  <path d="M43.9062 176.1586c2.2475 1.51 5.1258 1.7322 7.393.4917 1.1358-.6394 2.039-1.6286 2.6336-2.7207.6181-1.0866.9106-2.3225.8451-3.5339-.0365-1.2324-.4622-2.4111-1.2943-3.2703-.7621-.896-1.9917-1.509-3.2492-1.4738-1.2162.0175-2.5036.6206-3.032 1.7304-.5171 1.0547-.3388 2.4258.4836 3.1197-.5516-.9082-.3205-2.023.215-2.6836.5492-.6475 1.4441-.8833 2.2278-.7329 1.5514.2358 2.4973 1.9069 2.3615 3.3803-.1505 1.5069-1.1601 3.0728-2.526 3.6211-1.3637.6323-3.1557.4072-4.4751-.539-1.3673-.8746-2.2494-2.5811-2.46-4.2994-.2903-1.7041.418-3.5302 1.3089-5.2255.4841-.8619.9967-1.6924 1.5585-2.5035.5766-.8178 1.1858-1.6093 1.8243-2.3764 1.2771-1.5332 2.6717-2.9676 4.1585-4.3169-3.6911 1.8183-6.9663 4.4328-9.5365 7.8818-1.2942 1.7051-2.2923 3.9592-2.1986 6.6377.0969 1.2744.4651 2.5874 1.0799 3.7881C41.8437 174.3311 42.7928 175.3671 43.9062 176.1586zM29.8507 107.0012c.2909.9218.7358 1.7426 1.2616 2.4848.5456.7456 1.1866 1.4156 1.8232 2.0327 1.2976 1.2378 2.7719 2.1841 4.3471 2.8614 1.5802.6479 3.2498 1.0366 4.9344 1.1333l.0291-.1895c-1.6089-.3904-3.135-.9922-4.5011-1.8496-1.3919-.8193-2.6355-1.8852-3.6751-3.1538-1.0157-1.2637-1.6172-2.7978-2.3722-4.2598-.7829-1.5029-1.2884-3.073-1.9198-4.8608l-.2035.0283c-.2459.9702-.3328 1.9605-.2951 2.9304C29.3565 105.1376 29.5622 106.0974 29.8507 107.0012zM23.7092 117.5319c.3248.6714.9098 1.156 1.5845 1.2427.6336.0947 1.2921-.1626 1.8726-.541.5696-.3691 1.0702-.8491 1.6145-1.2617 1.5185-1.1966 3.2984-1.8902 5.1365-2.0791-1.7322-.6426-3.2822-1.7593-4.4548-3.2867-.4223-.5468-.7868-1.1367-1.2461-1.6362-.4691-.501-1.0424-.9145-1.6777-.9927-.6766-.0737-1.3625.2378-1.8465.8184-.4626.5713-.7109 1.3989-.6662 2.1714-.7679-.605-1.9222-.7964-2.8354-.4434-.6875.2642-1.3083.8257-1.7467 1.5298.2469.8037.7077 1.5025 1.3084 1.9177.7959.5706 1.9602.6858 2.8562.2806C23.3708 115.9996 23.4054 116.8518 23.7092 117.5319z"></path>
  <path d="M32.7602 100.151c-.3136 1.3117-.3615 2.6772-.1566 3.9467.4688 2.6143 2.0557 4.587 3.6558 5.9485 3.2741 2.7508 7.11 4.5642 11.1145 5.4866-3.5311-1.9595-6.8209-4.3315-9.4696-7.2344-.6422-.7265-1.2285-1.4887-1.6831-2.2885-.4413-.7964-.714-1.6226-.7954-2.4849-.0965-.8657-.0293-1.7647.1901-2.5972.2533-.8227.6692-1.5752 1.2134-2.1645 1.0512-1.2298 2.7589-1.855 4.234-1.5523 1.4621.2325 2.7802 1.5054 3.2812 2.9492.4998 1.4004-.076 3.2315-1.5209 3.8316-.7219.3179-1.6481.3044-2.3314-.209-.665-.5171-1.1859-1.5596-.818-2.5591-.6817.8526-.4967 2.2403.2433 3.1455.7721.9693 2.166 1.2495 3.3499.9859 1.2384-.2534 2.2524-1.145 2.8235-2.1717.6095-1.0368.7439-2.2736.4906-3.4821-.188-1.1939-.7814-2.3267-1.6247-3.2495-.831-.9268-1.9378-1.6827-3.1933-2.035-2.4922-.6984-5.2256.1971-7.081 2.1673C33.7746 97.6149 33.1256 98.8537 32.7602 100.151zM29.8487 119.4317c-.6947.584-1.3307 1.2644-1.8427 2.0845-.5058.8086-.9452 1.689-1.2646 2.6187-.2793.9311-.4428 1.9121-.4474 2.9126l.19.0669c1.0585-1.5616 1.941-2.9664 3.0743-4.2149 1.0971-1.2373 2.0631-2.5618 3.3621-3.5312 1.3238-.9683 2.7944-1.6895 4.3481-2.1446 1.5371-.4883 3.1643-.6802 4.8206-.6653l.019-.1906c-1.6551-.3277-3.3698-.3592-5.0608-.1368-1.6945.2618-3.3596.8199-4.9257 1.6939C31.3509 118.3626 30.5632 118.8487 29.8487 119.4317z"></path>
  <path d="M33.9259 124.071c.6402-.6624 1.3985-1.2534 2.2021-1.7959 3.2904-2.1484 7.0694-3.6211 10.9771-4.627-4.1079-.1079-8.2744.6788-12.133 2.5332-1.8892.9078-3.9201 2.4314-5.0274 4.8457-.516 1.1724-.8111 2.5059-.8355 3.8545.029 1.3477.3477 2.709.9685 3.9292 1.3037 2.3824 3.7257 3.9229 6.3142 3.8804 1.3028-.0371 2.5635-.4922 3.5998-1.1811 1.0484-.6729 1.9056-1.6309 2.3871-2.7305.5474-1.1069.7262-2.3472.3958-3.4942-.2962-1.1464-1.0548-2.2636-2.1906-2.8188-1.0802-.5513-2.5-.6187-3.49.1167-.943.6914-1.4685 1.988-1.0226 2.9844-.1062-1.0596.6595-1.939 1.4324-2.273.7901-.3169 1.6901-.1079 2.3098.3907 1.2488.9331 1.3476 2.85.5141 4.09-.8468 1.263-2.4411 2.1756-3.9156 2.0249-1.504-.0759-3.0001-1.1086-3.7106-2.5627-.3794-.7065-.5943-1.5391-.6332-2.3975-.0042-.8593.1557-1.7441.4657-2.5532C32.8288 125.4669 33.2989 124.7326 33.9259 124.071zM52.0326 62.5235c.1267-.855.2566-1.7329.3933-2.6565l-.1934-.07c-1.3758 1.456-2.1117 3.372-2.4532 5.2319-.3798 1.8765.0948 3.7712.6274 5.4404.5662 1.6968 1.4083 3.2051 2.5029 4.5489 1.1097 1.3183 2.4122 2.4433 3.8539 3.3105l.1076-.1582c-1.2497-1.0994-2.3351-2.353-3.1314-3.7378-.8443-1.3691-1.4399-2.8857-1.7583-4.4853-.3476-1.6226-.1424-3.243-.1211-4.8824C51.8805 64.231 51.9425 63.3908 52.0326 62.5235zM46.9604 66.9044c-.1778-.6597-.4892-1.2918-1.0154-1.6567-.5643-.3809-1.3206-.4273-2.0255-.1421-.6814.2863-1.2948.8994-1.6225 1.5996-.3932-.8902-1.3252-1.5977-2.3025-1.7124-.744-.0948-1.5252.1362-2.2277.5678-.1643.8228-.0893 1.6521.2448 2.2981.4333.8728 1.4109 1.5159 2.3984 1.5769-.5619.5513-.9562 1.3047-.9861 2.0611-.0092.7573.2943 1.466.8523 1.8564.5182.3794 1.2133.4514 1.8925.3789.6606-.0727 1.3196-.2705 2.006-.3755 1.9171-.344 3.8264-.1228 5.5459.5686-1.2471-1.384-2.1352-3.1213-2.4339-5.0002C47.1725 68.2473 47.1299 67.5577 46.9604 66.9044z"></path>
  <path d="M59.9145 67.398c.2273 1.2139 1.3297 2.1123 2.5027 2.4341 1.2086.3487 2.5526.062 3.5083-.6084 1.0272-.6303 1.7274-1.6582 2.0711-2.8427.3733-1.1631.3919-2.4268.0722-3.6397-.3026-1.2061-.9297-2.3901-1.8772-3.2861-1.8777-1.7749-4.7276-2.2718-7.2732-1.3802-1.2801.4925-2.4577 1.2583-3.3573 2.2627-.8955 1.0083-1.5802 2.1883-1.9962 3.4017-.7605 2.5698-.3512 4.9941.4686 6.9765 1.6319 3.9741 4.1427 7.333 7.2618 10.0166-1.0993-1.6816-2.0893-3.4214-2.9414-5.2265-.4259-.9029-.8175-1.8218-1.1709-2.7579-.3401-.9257-.6293-1.8588-.8824-2.8139-.4386-1.8648-.6665-3.8096.0331-5.3797.6405-1.6184 1.922-3.0503 3.4643-3.5549 1.5141-.5859 3.3049-.3564 4.4677.5972 1.1782.8794 1.771 2.6408 1.533 4.1445-.2298 1.4541-1.564 2.8355-3.132 2.6836-.7895-.0581-1.6037-.5024-1.9668-1.2747-.3531-.7732-.2984-1.9108.4633-2.6521C60.193 64.9641 59.6778 66.2477 59.9145 67.398zM37.4176 81.279c1.6741-.8872 3.1694-1.689 4.693-2.3037 1.5196-.6035 3.052-1.2918 4.6435-1.5527 1.5794-.2701 3.2235-.2203 4.8252.1093 1.5957.2886 3.13.8794 4.5913 1.6656l.1078-.1582c-1.311-1.0591-2.8163-1.8868-4.4214-2.4808-1.6272-.5603-3.3698-.8474-5.1756-.8088-1.75.0728-3.6112.3132-5.3053 1.2773-1.6681.9493-3.114 2.358-4.0974 4.1041L37.4176 81.279z"></path>
  <path d="M43.1725 83.3576c1.3111-1.167 3.1123-1.6782 5.0396-1.8906 3.9839-.3311 7.9076.0566 11.8854 1.0229-3.592-2.0117-7.6736-3.2749-11.9061-3.3955-2.1304-.0942-4.6262.3179-6.7078 1.9566-.5104.395-.9908.8501-1.4277 1.354-.4218.5112-.7785 1.0815-1.088 1.6806-.6017 1.2063-1.0266 2.5254-.982 3.9214.0736 2.7266 1.4305 5.1809 3.7947 6.3633 1.1746.5723 2.4943.75 3.716.6133 1.2382-.1113 2.4721-.5508 3.4265-1.294.4837-.3696.9002-.8134 1.2212-1.3115.3449-.4878.604-1.0259.7345-1.6054.3092-1.1329.0416-2.5298-.6606-3.5245-.6912-.9834-1.9171-1.7019-3.1482-1.5166-1.1897.1582-2.1458 1.1187-2.2628 2.1836.4378-.9682 1.4508-1.4287 2.2968-1.3632.8384.0817 1.5447.6875 1.8769 1.4228.7513 1.4429-.1784 3.1255-1.4422 3.8608-1.2852.7478-3.1574.8028-4.3866-.0107-1.2699-.7524-2.1643-2.3823-2.1342-4.0054C41.0384 86.2337 41.8517 84.4919 43.1725 83.3576zM88.7563 38.1398c.7989-1.4853 1.7885-2.832 2.9115-4.3435l-.1388-.1516c-.9362.3535-1.8131.8135-2.5769 1.4297-.7635.6174-1.44 1.3252-2.0221 2.0723-1.2038 1.4936-1.669 3.3725-1.9652 5.1103-.2853 1.7639-.2298 3.5069.1081 5.1866.3729 1.6831 1.0059 3.2836 1.8815 4.7202l.1686-.0909c-.6004-1.5581-.971-3.1523-1.0392-4.7563-.1146-1.606.0592-3.228.5169-4.7957C87.042 40.9176 87.9832 39.5959 88.7563 38.1398zM74.757 38.0724c-.3581.667-.4173 1.436-.1037 2.041.2832.5761.865.9624 1.5 1.2124.6164.2387 1.3014.3857 1.954.6035 1.856.582 3.4444 1.6606 4.6472 3.0693-.4685-1.8139-.4414-3.7456.162-5.5542.2121-.6548.4931-1.2866.6452-1.9453.1474-.6675.1637-1.3721-.1333-1.9394-.3236-.5992-.9718-.9898-1.7278-1.0625-.7359-.0601-1.5623.2002-2.1762.6709.0634-.9722-.4348-2.0308-1.247-2.5848-.6141-.4255-1.4228-.6027-2.2394-.5363-.5255.6538-.8424 1.4248-.8449 2.1523-.0199.9751.5481 1.9981 1.394 2.5088C75.8327 36.9334 75.1424 37.4323 74.757 38.0724z"></path>
  <path d="M97.2646 41.9538c-1.081-.0542-2.1266.8613-2.4508 1.9878-.3606 1.1826.2 2.4897 1.0896 3.3169.9102.8721 2.2276 1.2251 3.3897 1.0903 1.2005-.084 2.2956-.6723 3.1479-1.5639.8726-.8448 1.4718-1.9654 1.7523-3.1861.2914-1.2094.2857-2.5493-.137-3.7832-.8387-2.4458-3.1301-4.1985-5.8028-4.5986-1.3633-.1597-2.7582-.0117-4.0263.4458-1.2604.4819-2.4134 1.2124-3.3439 2.0976-1.8726 1.9053-2.6187 4.2774-2.8206 6.3907-.3927 4.2832.2775 8.4262 1.7985 12.2509-.3792-3.9768-.3179-8.0771.5752-11.8876.4704-1.8677 1.1764-3.6788 2.5221-4.751.6593-.5679 1.4388-1.02 2.2497-1.3089.8136-.281 1.6756-.3459 2.4682-.236 1.612.1762 3.0929 1.2158 3.6812 2.6035.6368 1.33.3406 3.1513-.5651 4.3789-.8739 1.1919-2.7002 1.7802-4.0171.9238-.6722-.4163-1.1873-1.187-1.1518-2.04C95.6703 43.2394 96.2406 42.2403 97.2646 41.9538zM68.3978 45.6101l.0527.1933c1.8955-.0039 3.5875-.0239 5.2218.1392 1.6322.1821 3.301.2719 4.833.7802 1.5224.4898 2.9651 1.3121 4.2268 2.3375 1.2793.9941 2.3648 2.2275 3.2953 3.601l.1685-.0903c-.6709-1.5464-1.6212-2.9771-2.7678-4.2461-1.1816-1.2505-2.592-2.3105-4.2082-3.1121-1.5926-.7619-3.3449-1.3982-5.2923-1.3317C72.0046 43.9379 70.0779 44.5221 68.3978 45.6101z"></path>
  <path d="M72.5813 50.319c1.703-.4231 3.5296-.0488 5.3421.6675 3.6762 1.5435 6.9829 3.7202 10.0577 6.4136-2.2461-3.439-5.2859-6.4639-8.9772-8.5283-1.8394-1.0645-4.247-1.8675-6.8482-1.3804-1.2749.217-2.5476.7202-3.6364 1.5166-1.094.7871-2.0802 1.7603-2.6908 3.0147-.594 1.2241-.8869 2.5395-.8347 3.8076.0562 1.2749.481 2.5302 1.2348 3.5918.773 1.0527 1.8588 1.8252 3.0053 2.2734 1.1397.4678 2.4434.6602 3.6333.4443.6007-.1025 1.1765-.3012 1.6931-.5927.531-.2735 1.0119-.6289 1.3968-1.0821.7992-.8623 1.2165-2.2177 1.0561-3.4267-.1551-1.1934-.9074-2.3985-2.0832-2.8052-1.1303-.4175-2.4212-.0078-3.0204.8796.8376-.6543 1.9487-.591 2.6675-.1399.7044.462 1.0485 1.3262 1.0006 2.1324-.0055 1.6269-1.6118 2.685-3.0725 2.7492-1.4872.0647-3.1703-.7583-3.8799-2.05-.7744-1.2573-.8062-3.1133-.0258-4.5376C69.3549 51.8731 70.8822 50.7062 72.5813 50.319zM126.0085 43.0392c.1953-1.6436.6117-3.2642 1.2998-4.7164.6472-1.4685 1.557-2.8144 2.6923-3.9785.5677-.5869 1.2154-1.0901 1.8918-1.5654.6878-.4395 1.3747-.8787 2.0558-1.314 1.3911-.8833 2.9061-1.7251 4.5946-2.497l-.052-.1997c-1.9775-.3033-3.9748.2138-5.6933.9528-1.761.7915-3.0494 2.2303-4.1205 3.6155-1.0741 1.4126-1.8377 2.98-2.3228 4.6533-.4551 1.6602-.6416 3.3702-.5368 5.0498L126.0085 43.0392zM128.177 29.8874c.4927-.4761 1.0353-.8997 1.4767-1.408.4414-.5183.784-1.1316.786-1.7727-.007-.6814-.398-1.332-1.0321-1.7539-.6226-.3974-1.4737-.5735-2.2362-.4297.5097-.8422.5625-2.0087.1023-2.8691-.345-.6414-.9781-1.1729-1.7317-1.5037-.7704.3291-1.4104.8601-1.752 1.5008-.4725.8506-.4469 2.0202.0632 2.8696-.7725-.1543-1.616-.0527-2.2556.3647-.6283.4205-1.0399 1.0718-1.0443 1.753-.018.6416.3169 1.2558.7625 1.7744.4348.5156.9715.9184 1.4472 1.4287 1.3711 1.3879 2.2732 3.0889 2.6802 4.8984C125.8742 32.9493 126.8014 31.1871 128.177 29.8874z"></path>
  <path d="M139.7022 38.8054c-.9379-.5176-2.281-.2471-3.0925.5996-.8683.8677-.9808 2.2861-.5787 3.4409.401 1.1948 1.3976 2.1685 2.4953 2.5669 1.118.4097 2.3464.4819 3.5157.0903 1.1715-.3662 2.2325-1.1225 3.0395-2.0415.8165-.9248 1.4315-2.1084 1.6297-3.3999.1934-1.2925-.006-2.581-.5315-3.7656-.5273-1.1709-1.3929-2.1836-2.4742-2.9976-.5637-.4013-1.1712-.7304-1.8035-.9892-.6366-.2315-1.2995-.3848-1.967-.4746-1.3383-.1587-2.6867-.1289-3.9298.292-2.5439.8242-4.3025 2.5102-5.4715 4.3471-2.3434 3.5972-3.6828 7.5305-4.1217 11.6638.7613-1.8991 1.6313-3.6643 2.6333-5.3942 1.0009-1.7032 2.1392-3.4048 3.4209-4.8653 1.2854-1.4199 2.7505-2.6631 4.4456-3.039 1.6897-.358 3.597-.1255 4.8943.8261 1.3407.9278 2.1637 2.5669 2.0464 4.0432-.0522 1.469-1.1669 2.9769-2.5321 3.6045-1.3163.5874-3.2317.3802-3.9911-1.0461-.4012-.689-.4983-1.6143-.0705-2.3477C137.6946 39.1866 138.6567 38.6153 139.7022 38.8054zM124.9566 43.0401c.1277-1.6801-.0459-3.3901-.4685-5.0503-.4619-1.6543-1.2157-3.2719-2.2714-4.7163-1.0533-1.3989-2.3085-2.7993-4.0638-3.6499-1.7271-.8217-3.709-1.229-5.7036-1.0403l-.0433.1985c1.6802.8697 3.1896 1.6516 4.5605 2.5572 1.3584.896 2.7954 1.7812 3.914 2.9423 1.1192 1.1565 2.0107 2.5132 2.649 4.0284.6684 1.4804 1.0531 3.0805 1.2359 4.7304H124.9566z"></path>
  <path d="M109.0647 35.4562c1.3167-.8837 3.2134-1.1977 4.8965-.7592 1.7047.4157 3.1489 1.6198 4.417 3.0739 2.5346 3.1097 4.442 6.535 5.9058 10.3689-.3839-4.1123-1.6602-8.1679-3.9641-11.7275-.5677-.9028-1.2867-1.8052-2.1847-2.5994-.8965-.7824-1.9685-1.3972-3.2337-1.8137-.6147-.1968-1.2624-.3349-1.925-.4092-.6596-.0512-1.3322-.0258-2.0012.0603-1.3352.1868-2.6615.5892-3.7857 1.4173-1.0953.8076-1.9664 1.8369-2.5096 2.9839-.5445 1.1479-.7497 2.4633-.5757 3.7519.1957 1.2915.7984 2.4795 1.6045 3.4087.7931.9502 1.8565 1.7214 3.0099 2.085.5791.1884 1.1808.2802 1.7733.2622.5965.0034 1.1874-.0855 1.7384-.3076 1.1081-.389 2.1072-1.3973 2.5265-2.5455.4178-1.1267.313-2.5434-.5382-3.4526-.8045-.8843-2.1391-1.1313-3.0819-.6225 1.0457-.1885 1.9998.3847 2.4262 1.1186.4085.7368.3109 1.6616-.1062 2.3525-.7613 1.4375-2.675 1.6236-3.997 1.0035-1.3459-.6346-2.4537-2.1451-2.4816-3.6187C106.8767 38.0139 107.7116 36.3557 109.0647 35.4562zM167.9988 49.5261c1.2638-1.0166 2.7158-1.8238 4.2434-2.2959 1.5379-.4912 3.2155-.5532 4.8433-.7259 1.6451-.1364 3.3279-.1013 5.233-.0671l.0454-.1987c-1.6684-1.1094-3.5857-1.7215-5.5022-1.791-1.9477-.0894-3.7165.52-5.3177 1.2646-1.6253.7837-3.038 1.834-4.2332 3.0713-1.1692 1.2519-2.1258 2.6772-2.8136 4.2163l.1676.0923C165.6014 51.7238 166.7085 50.5061 167.9988 49.5261zM175.6996 34.7486c-.0055-.7334-.3153-1.5083-.8243-2.1621-.8289-.0791-1.6373.0835-2.2459.5093-.8189.5449-1.3388 1.5933-1.2744 2.5708-.6205-.4814-1.4349-.7454-2.1828-.6973-.7471.0708-1.4103.4497-1.7297 1.0503-.3131.5596-.3034 1.2639-.1524 1.938.1459.6602.4208 1.294.6167 1.9458.5964 1.8174.6 3.7551.1134 5.562 1.2179-1.396 2.8185-2.4575 4.6722-3.0244.6651-.2056 1.3518-.345 1.971-.5762.6284-.248 1.2146-.6279 1.5141-1.1948.3103-.6074.2693-1.3716-.0918-2.0491-.3689-.6389-1.065-1.1506-1.8075-1.3789C175.1199 36.7351 175.7095 35.7238 175.6996 34.7486z"></path>
  <path d="M176.0835 55.5289c.724-.4419 1.8349-.4907 2.6637.1743-.5887-.894-1.8697-1.3262-3.0096-.9155-1.1884.3867-1.9467 1.5889-2.1168 2.7798-.1759 1.2075.229 2.5625 1.007 3.4328.3838.4602.8562.8265 1.3874 1.0999.5141.2949 1.0835.5019 1.683.6113 1.1955.2354 2.4871.0606 3.6478-.3965 1.1509-.4336 2.246-1.1923 3.0242-2.2431 1.5745-2.1201 1.6599-4.9307.4964-7.3863-.5976-1.2675-1.579-2.2441-2.659-3.0498-1.0771-.812-2.3492-1.3237-3.6239-1.563-2.5943-.5205-5.0058.2647-6.8644 1.3003-3.7047 2.0271-6.786 5.0166-9.068 8.4312 3.11-2.6585 6.4394-4.7969 10.1327-6.2983 1.8229-.6988 3.6512-1.0477 5.3404-.6094 1.7082.4067 3.2152 1.6006 3.9539 3.0024.769 1.426.7088 3.2896-.0792 4.5352-.7331 1.2773-2.4179 2.0854-3.9106 1.9953-1.4588-.0676-3.0449-1.1545-3.0395-2.7863C175.0191 56.8424 175.3658 55.9757 176.0835 55.5289zM163.5763 52.4929l.1673.0923c.891-1.4268 1.5323-3.0259 1.932-4.6998.3587-1.6811.4204-3.4228.1532-5.1899-.2818-1.7344-.7126-3.6274-1.9041-5.1274-1.1601-1.5069-2.6877-2.8819-4.578-3.5503l-.1297.1543c.5391.7568 1.054 1.4795 1.5556 2.1836.4743.7321.9121 1.4528 1.3042 2.185.7727 1.4597 1.6865 2.7964 2.1126 4.4029.4424 1.5712.5999 3.194.4779 4.8022C164.5837 49.3459 164.1847 50.9371 163.5763 52.4929z"></path>
  <path d="M162.7107 44.5592c-.1642-2.1265-.9079-4.4829-2.7553-6.4258-.9183-.8887-2.0657-1.627-3.323-2.1172-1.2546-.4976-2.6576-.6289-4.0163-.4834-1.3324.166-2.5871.6978-3.6087 1.4932-1.0205.7856-1.8033 1.82-2.248 3.0478-.4251 1.2329-.4436 2.5708-.1629 3.7798.2572 1.2271.8666 2.3184 1.711 3.2075.8451.895 1.9457 1.4903 3.1382 1.5777 1.1596.1762 2.4892-.1905 3.4058-1.0484.8984-.8208 1.4624-2.1255 1.1219-3.3061-.3114-1.1343-1.3576-2.0327-2.429-2.0176 1.0111.3247 1.5808 1.3032 1.6171 2.1553.0183.8486-.4953 1.6186-1.1811 2.0263-.6665.4507-1.4365.4673-2.1666.2779-.7312-.187-1.4049-.6411-1.8412-1.2388-.891-1.2122-1.1673-3.0801-.5105-4.3931.5934-1.3535 2.0891-2.395 3.7041-2.5608 1.6054-.2585 3.3938.4471 4.6935 1.5862 1.3482 1.0811 2.028 2.9209 2.4845 4.7805.2091.9646.3725 1.9329.4932 2.9041.1098.9951.1775 1.9919.2068 2.9902.0583 1.9956-.0371 3.9951-.2583 5.9912C162.347 52.9781 163.07 48.8488 162.7107 44.5592zM198.8058 78.3669c1.5973-.3174 3.2459-.3506 4.8216-.0625 1.5885.2788 3.117.9936 4.6245 1.6035 1.5208.6411 3.0064 1.4458 4.6698 2.3623l.1357-.1567c-.9587-1.7578-2.3942-3.1768-4.0434-4.1353-1.6832-.9814-3.5434-1.2549-5.2967-1.3447-1.8039-.0591-3.5436.2153-5.1772.7568-1.6173.5659-3.1269 1.3838-4.4505 2.4273l.1059.1592C195.6606 79.2001 197.2072 78.6364 198.8058 78.3669zM210.5392 65.9694c-.9782.1026-1.9258.7893-2.3232 1.6846-.3253-.7144-.9235-1.3252-1.6077-1.6304-.6938-.2841-1.4571-.2568-2.019.1265-.5374.3501-.8565.978-1.0362 1.6445-.1778.6516-.2291 1.3408-.3587 2.0088-.3169 1.8862-1.2193 3.6069-2.4862 4.9785 1.7274-.6709 3.6388-.8686 5.544-.5117.6902.1218 1.3506.3252 2.0085.4058.6723.0713 1.3681.0063 1.8963-.3574.5567-.3936.8745-1.0892.8684-1.855-.0188-.7437-.406-1.5135-.9552-2.0606.981-.0591 1.9726-.6811 2.4167-1.5486.3358-.6511.4213-1.4797.2744-2.2937C212.0614 66.1087 211.276 65.8752 210.5392 65.9694z"></path>
  <path d="M203.1803 87.44c.8473-.0566 1.8565.4136 2.2854 1.3863-.1054-1.0664-1.0581-2.0337-2.2401-2.2076-1.234-.207-2.4629.5059-3.1643 1.4825-.7192.9907-.9942 2.3823-.7005 3.5112.1247.5864.388 1.1235.716 1.6191.3169.5005.7296.9458 1.2108 1.3204.9485.7626 2.1916 1.1992 3.4123 1.3393 1.2223.1484 2.5448-.0171 3.7209-.5869 1.1704-.5733 2.1334-1.4751 2.7944-2.5737.6459-1.0918 1.0104-2.3887 1.0679-3.7422.0521-1.3985-.3457-2.7266-.9419-3.9351-.3025-.6025-.6579-1.1741-1.0694-1.6924-.4317-.5083-.9079-.9697-1.4154-1.372-2.0644-1.6595-4.549-2.0899-6.6853-2.0293-4.2279.081-8.3327 1.2885-11.9463 3.2563 3.9928-.9092 7.9261-1.2519 11.9037-.8745 1.9243.2344 3.7213.7642 5.0147 1.9351 1.3083 1.1601 2.1103 2.9067 2.114 4.4921.003 1.628-.8953 3.2437-2.1753 3.9844-1.2406.792-3.1099.7285-4.3942-.0415-1.2431-.7436-2.1657-2.4331-1.4026-3.8774C201.6285 88.1109 202.3365 87.5041 203.1803 87.44zM196.6814 75.2419c-.815 1.3765-1.9135 2.6042-3.1739 3.6987l.1058.1597c1.452-.8499 2.7622-1.9673 3.8935-3.2642 1.1041-1.3257 1.9641-2.8364 2.5501-4.5263.5576-1.6665 1.0534-3.5401.6988-5.4234-.3199-1.8777-1.0425-3.7944-2.3967-5.2695l-.1865.0762c.1228.9218.2403 1.8012.3546 2.6587.089.8598.1332 1.708.1415 2.5358.0031 1.6531.1906 3.2605-.1786 4.8802C198.1513 72.3644 197.5367 73.8746 196.6814 75.2419z"></path>
  <path d="M193.2613 73.5138c-.3634.9306-.7682 1.8462-1.2055 2.7431-.8756 1.7945-1.8888 3.521-3.0119 5.1866 3.1513-2.6465 5.7099-5.9678 7.3858-9.9322.8393-1.956 1.2871-4.3965.5471-6.9663-.3964-1.2158-1.0651-2.4043-1.9465-3.4248-.896-1.0068-2.0555-1.7959-3.3263-2.2991-2.5497-.9221-5.3893-.4626-7.2973 1.2845-.9507.8916-1.5925 2.0678-1.9104 3.271-.34 1.2006-.3379 2.4794.023 3.6313.3277 1.1899 1.0205 2.2349 2.0318 2.8721.9632.6806 2.2948.9922 3.5092.6567 1.1762-.3066 2.2828-1.1992 2.5321-2.4038.2493-1.146-.2415-2.4438-1.215-2.9131.7614.7417.7941 1.8882.4337 2.6553-.3795.7602-1.1922 1.2021-1.9884 1.2427-1.5611.1377-2.8869-1.252-3.0996-2.7212-.2091-1.5034.3883-3.2547 1.5875-4.1157 1.1766-.9415 2.9736-1.1534 4.4764-.5445.749.2803 1.4795.7437 2.0578 1.3794.5766.6372 1.0473 1.4019 1.3553 2.21.6845 1.5884.4425 3.5224-.0243 5.3867C193.9123 71.6637 193.6062 72.5974 193.2613 73.5138zM217.8554 118.9582c-1.5667-.8931-3.2323-1.4604-4.9288-1.7417-1.6941-.252-3.4103-.2305-5.0677.0767l.0191.1899c1.6574-.0049 3.2879.2153 4.8264.7212 1.5472.4639 3.0506 1.2002 4.3019 2.1899 1.281.9873 2.2622 2.334 3.3518 3.5757 1.0414 1.2761 1.9626 2.6812 3.0102 4.2686l.19-.0757c-.0337-2.0025-.5899-3.9277-1.6441-5.5449C220.8825 120.9641 219.3902 119.8527 217.8554 118.9582zM228.8603 112.6906c-.9135-.3647-2.0716-.1977-2.8401.4102.0447-.7842-.2002-1.604-.6638-2.1929-.4817-.5752-1.1698-.9062-1.8457-.8284-.6383.0603-1.2132.4681-1.6824.9749-.4608.4946-.8272 1.081-1.2526 1.6123-1.1593 1.5229-2.7469 2.625-4.5138 3.2502 1.8401.2102 3.6217.9256 5.1389 2.1302.5403.4311 1.0589.9165 1.5984 1.2954.5603.3764 1.2047.643 1.8418.5678.6753-.0891 1.2845-.5566 1.6353-1.2382.3064-.6656.3414-1.5301.1062-2.2705.8949.4047 2.0619.3164 2.8597-.2452.6012-.4209 1.0636-1.1157 1.3139-1.9062C230.1546 113.5227 229.5552 112.9501 228.8603 112.6906z"></path>
  <path d="M210.0353 128.6178c.6314-.4803 1.5222-.6866 2.3151-.3492.8033.3458 1.4469 1.2315 1.37 2.2916.4247-.9917.023-2.292-.9605-2.9976-.9903-.7588-2.4103-.7007-3.4898-.1641-.5627.2691-1.035.6822-1.4181 1.1675-.3971.4854-.6867 1.0435-.8308 1.6123-.3396 1.1533-.1167 2.3921.3421 3.5025.4782 1.1181 1.3366 2.08 2.3819 2.7768 1.0349.7031 2.2935 1.1738 3.5954 1.2158 2.6032.085 4.9619-1.4428 6.3535-3.7905 1.2715-2.4346 1.2973-5.4219.2154-7.79-1.031-2.4307-3.0727-3.9702-4.966-4.9121-3.7646-1.8999-7.9895-2.7393-12.0892-2.6805 1.948.5286 3.8956 1.1697 5.7098 1.9568 1.8089.7881 3.5559 1.7168 5.2232 2.8111 1.6347 1.1035 2.9333 2.4111 3.5323 4.0498.6626 1.6381.5076 3.5542-.2317 4.9585-.6853 1.4467-2.3033 2.4511-3.7666 2.5122-1.4721.122-3.0796-.8037-3.8529-2.0843C208.6478 131.4621 208.6952 129.5406 210.0353 128.6178zM220.3636 102.2587c-.318.8743-.6216 1.7083-.9173 2.5213-.3277.8047-.6776 1.5752-1.0564 2.313-.7663 1.4655-1.3443 2.976-2.4261 4.2387-1.0432 1.2559-2.2904 2.3072-3.684 3.1192-1.3678.8398-2.8979 1.4136-4.5251 1.7959l.019.1904c1.6801-.0767 3.3606-.4561 4.9663-1.0771 1.5816-.6582 3.0554-1.5967 4.3578-2.8199 1.27-1.2163 2.5806-2.645 3.1409-4.4775.5859-1.8115.8448-3.8477.3257-5.7842L220.3636 102.2587z"></path>
  <path d="M212.1695 109.2766c-.6754.7194-1.3803 1.4038-2.1115 2.0546-.7535.6543-1.5392 1.2769-2.3435 1.8672-1.6106 1.1809-3.3113 2.2373-5.0809 3.1885 4.0212-.876 7.8321-2.625 11.1611-5.3555 1.6525-1.3413 3.179-3.2929 3.7243-5.9155.2118-1.2607.1696-2.6245-.139-3.9385-.3143-1.3115-.989-2.5454-1.8809-3.5815-.888-1.0039-2.0605-1.728-3.2809-2.1226-1.2235-.395-2.5178-.4531-3.7805-.1225-1.2558.3501-2.3689 1.0947-3.2069 2.0127-.8608.9072-1.4361 2.0351-1.6664 3.2275-.2597 1.2046-.1284 2.4497.474 3.4819.5246 1.0513 1.5702 1.941 2.7992 2.2081 1.1847.2736 2.5792-.002 3.3587-.9527.755-.8999.9118-2.2739.2796-3.1448.318 1.014-.1747 2.0413-.8529 2.554-.6888.4971-1.6139.5112-2.3382.1777-1.4483-.601-1.9671-2.4482-1.4826-3.8452.505-1.4258 1.8639-2.706 3.3211-2.9116 1.4712-.2866 3.1604.3594 4.2143 1.5947 1.1193 1.1763 1.5659 3.0454 1.3576 4.7647C214.5678 106.2419 213.4454 107.8444 212.1695 109.2766zM116.0226 196.5206c3.0244.3845 6.044.5745 9.0445.5745 15.5571 0 30.5947-5.1141 43.1026-14.7937 14.9149-11.5589 24.4384-28.2268 26.8153-46.9344 2.3769-18.7072-2.6728-37.2268-14.2196-52.1472-11.5586-14.9148-28.2267-24.438-46.9341-26.8149-18.7111-2.378-37.2276 2.6726-52.1471 14.2192C66.7693 82.1831 57.2458 98.851 54.8689 117.5583 49.9612 156.1898 77.3948 191.6122 116.0226 196.5206zM55.8612 117.6844c2.3432-18.4424 11.7318-34.8747 26.4354-46.2698 12.3312-9.5432 27.1543-14.5842 42.4927-14.5842 2.9571 0 5.9351.1878 8.916.5664 18.4424 2.3435 34.875 11.7317 46.2696 26.4353 11.3833 14.7093 16.3618 32.9666 14.018 51.4092-2.3432 18.4421-11.7318 34.8745-26.4354 46.2695-14.7081 11.3831-32.965 16.3611-51.4087 14.0179C78.0675 190.6898 51.0226 155.769 55.8612 117.6844z"></path>
</svg>
