<?xml version="1.0" encoding="UTF-8"?>
<svg xmlns="http://www.w3.org/2000/svg" version="1.1" viewBox="0 0 54 53.1">
  <!-- Generator: Adobe Illustrator 28.6.0, SVG Export Plug-In . SVG Version: 1.2.0 Build 709)  -->
  <g>
    <g id="Layer_1">
      <path d="M21.9,29.2c0,.6,0,1.2,0,1.8.6,0,1.1,0,1.7,0v2c-1.1,0-2.3,0-3.5-.2-.2-1.2-.3-2.5-.2-3.7h2c0,.1,0,.1,0,.1ZM34.3,40.6c2.7,3.4,3.8,7.8,3,12.2-10.3,2.1-19.4-7.2-17.4-17.5,1.2-.2,2.5-.3,3.7-.2v2c-.7,0-1.3,0-1.9,0-.9,7.7,6.1,14.8,13.8,13.9.3-3.9-1-7.7-3.8-10.4-.8,0-1.6-.2-2.4-.4-.6,2.1-1.8,4.1-3.3,5.7l-1.4-1.4c4.4-4.3,4.4-11.9,0-16.2-4.2-4.4-11.8-4.4-16,0l-1.4-1.4c1.6-1.6,3.6-2.8,5.8-3.4-.2-.9-.4-1.8-.4-2.7-2.7-2.9-6.5-4.3-10.3-4-.9,7.7,6.1,14.8,13.8,14,0-.6,0-1.2,0-1.7h2c0,1,0,2.3-.2,3.5C7.4,34.6-1.8,25.3.3,15.1c4.4-.8,8.8.3,12.2,3.1.5-4.3,2.8-8.2,6.5-10.8,3.7,2.5,6,6.5,6.5,10.9,3.4-2.7,7.8-3.8,12.1-3,.8,4.4-.2,8.9-3,12.3,4.3.5,8.1,2.9,10.6,6.5-2.5,3.7-6.4,6.1-10.8,6.5h0ZM14.4,19.8c0,1.1.1,2.3.4,3.3,2.7-.3,5.4.2,7.8,1.4,2-5,.5-11.1-3.7-14.6-2.9,2.5-4.5,6-4.5,9.9ZM25.9,26.9c.5.5,1,1.1,1.4,1.6,1.4-.6,2.9-1,4.5-1.1,2.8-2.7,4.3-6.5,3.9-10.5-3.9-.4-7.6,1.1-10.3,3.9-.1,1.6-.5,3.2-1.1,4.6.5.4,1.1.8,1.6,1.3h0ZM42.6,34.1c-3.3-4.2-9.3-5.7-14.2-3.8,1.2,2.5,1.7,5.3,1.3,8,4.7,1.2,9.8-.4,12.9-4.2ZM54,47.1c0,.1,0,.3,0,.4h0c-.7,5.9-9.2,5.5-9.4-.4,0-3.7,4.4-6.1,7.4-3.9v-26.3c-8.1-.3-14.7-6.8-15-14.9H10.5c2.2,2.9-.1,7.5-3.8,7.4C.7,9.3.4.7,6.3,0h0c.3,0,.6,0,1,0h41.8c2.8,0,5,2.2,5,5v41.6c0,.2,0,.4,0,.5ZM7.1,2c-3.8-.4-4.3,5.2-.4,5.4,3.3,0,3.7-4.8.4-5.4ZM52,15V5c0-1.6-1.3-3-3-3h-10c.3,7,5.9,12.7,13,12.9ZM52,47.6h0c.4-3.9-5.2-4.3-5.4-.4,0,3.3,4.8,3.7,5.4.4Z"/>
    </g>
  </g>
</svg>