<?xml version="1.0" encoding="UTF-8"?>
<svg xmlns="http://www.w3.org/2000/svg" version="1.1" viewBox="0 0 136 110.6">
  <!-- Generator: Adobe Illustrator 28.6.0, SVG Export Plug-In . SVG Version: 1.2.0 Build 709)  -->
  <g>
    <g id="Layer_1">
      <g>
        <path d="M135.6,50.1c-1.4-4.4-6.6-7.2-11.3-6.1-1.5.4-2.9,1.2-4.1,2.2-.3-2.2-2.3-4-4.6-4h-40.6c-2.5,0-4.5,1.9-4.7,4.4,1.1.3,2.1.7,3.1,1.1,0-.3,0-.6,0-.8,0-.9.7-1.6,1.6-1.6h28.1v4.7c-2.6,0-4.7,2.1-4.7,4.7v7.8c0,2.6,2.1,4.7,4.7,4.7h3.1c2.6,0,4.7-2.1,4.7-4.7v-7.8c0-2.6-2.1-4.7-4.7-4.7v-4.7h9.4c.9,0,1.6.7,1.6,1.6v17.2c.1,13.1-11.9,23.4-24.5,21.7-.7,2.9-1.7,5.6-3,8h16.6c4.7,0,6.4-6.2,2.5-8.6,5.8-3.7,9.9-9.7,11.2-16.7.7,1.9,2.8,3.5,4.8,3.4,1.2,0,2.6-.7,2.2-2-.2-.8-1.1-1.4-1.9-1.1-.6.1-1.1-.1-1.4-.3-1.9-1.4-.9-3.6.9-5,1.4-1.1,3.2-1.7,5-2.2,4.5-1.5,7.3-6.7,5.9-11ZM128.7,58.2c-3,.9-6.9,2.5-8.4,5.6v-9c.1-.3.2-.6.1-.9-.6-2.8,1.6-6.1,4.6-6.8,3.1-.7,6.7,1.2,7.6,4,.9,2.8-1,6.2-3.9,7.1Z"/>
        <path d="M130.5,10.9h-22.7c-2.1,0-2,3.1,0,3.1h7c7.2.2,7.2,10.7,0,10.9h-12.5c-1.2,0-.7,1.6-.8,2.3,0,2.2-1.8,3.9-3.9,3.9-1.2,0-.7,1.6-.8,2.3-.2,7.2-10.7,7.2-10.9,0,0-1.3-1-2.3-2.3-2.3h-8.6c-6.2-.2-6.2-9.2,0-9.4h3.9c3.1,0,3.1-4.6,0-4.7h-13.3c-6.2-.2-6.2-9.2,0-9.4h5.5c1.3,0,2.3-1,2.3-2.3,0-3,2.5-5.5,5.5-5.5h51.6c7.2.2,7.2,10.7,0,10.9Z"/>
        <g>
          <path d="M93.7,78c0,2.8-.4,5.4-1,7.8-.7,2.9-1.7,5.6-3,8-13.1,24.6-54.4,23-61.1-10.1h.3l3.6,3c8.6,26.4,41.7,26.8,53.7,7.2.9-1.5,1.7-3.2,2.4-4.9,1.2-3.2,1.9-6.9,2-10.9,0-12.7-7.4-22.3-17.1-26.8-1-.5-2-.9-3.1-1.2-10.1-3.4-21.9-1.7-30.5,7.3-.2-1.1-.5-2.2-.9-3.4,5.8-5.3,13.6-8.6,22-8.6s6.5.5,9.5,1.4c1.1.3,2.1.7,3.1,1.1,11.9,4.9,20.2,16.7,20.2,30.3Z"/>
          <path d="M57.8,51.4c-6.1,0-10.9,4.8-10.9,10.9.6,14.5,21.2,14.5,21.9,0,0-6.1-4.8-10.9-10.9-10.9h0Z"/>
          <path d="M85.9,70.2c0,4.4-3.4,7.8-7.8,7.8s-7.8-3.6-7.8-7.8c0-.8.2-1.6.4-2.3.5-1.8,1.5-3.1,2.8-4,4.5-3.1,12.2-1,12.4,6.3Z"/>
          <path d="M84.3,87.4c0,1.5-.4,3-1.2,4.1-.4.6-.8,1.1-1.2,1.5-1.4,1.3-3.3,2.1-5.4,2.1-4.4,0-7.8-3.6-7.8-7.8.3-10.3,15.3-10.3,15.6,0Z"/>
          <path d="M55.7,103c-2.3.2-4.5-.8-6.1-2.3l-5.8-4.7c1.6,11.9,18.1,13.9,22.5,2.8,3-7-2.2-15.5-9.8-15.9.6.6,3.9,4.5,4.5,5.2,5.8,4.7,2.3,14.8-5.3,15h0Z"/>
          <path d="M59.3,34.5c-4.5,2.2-7-2.8-3.1-4.8,2.8-1.2,6.1-1.2,9.4-1.6,5.2-.3,4.8-7.7-3.8-5.8-6.1,1.4-12.2,3.3-16.7,6.2-3.1,2.4-7.5-1.7-4.2-4.1,2.5-1.7,5.9-1.9,9.1-2.8,1.7-.6,1.7-5.3-5-4.2-12,1.9-22.2,13-28,25.2,8-2.3,18.1,3.1,21.2,9.8,4.4-8.6,12.8-12.5,28-12.3,7.5.2,4.1-11.1-6.9-5.6ZM46.5,37.5c-6.4,3-9.4,6.9-9.4,6.9-1.2,1.6-3.8-.3-2.5-1.9.2-.2,3.4-4.5,10.6-7.8,1.9-.8,3.1,2,1.2,2.8ZM51.4,34.9c-.8,1.9-3.6.6-2.8-1.2.8-1.9,3.6-.8,2.8,1.2Z"/>
          <path d="M77.7,21.9h-2.4c.8-.2,1.6-.2,2.4,0Z"/>
          <path d="M60.3,91.7l-19.7-22.5c1.6-2.8-.6-6.7-3.9-6.7.6-3.8.3-10.2-7.7-15-8-4.8-17.7-1.7-28.6,9.2-.8.6-.5,2.2.6,2.5.3,0,7,2.2,6.9,8-.5,7.8,8.3,12.6,15,9.4.3,3.1,4.1,5,6.7,3.6l21.9,18.1.2.2c4.8,4.1,11.2-1.4,8.6-6.7ZM15.7,56.9h0c5.3-2.8,14.5-.9,15.8,8.4l-3.3,3.3c1.4-8-5.9-11.6-11.1-8.9-1.9.8-3.1-1.9-1.4-2.8ZM22.5,68.6c-2.5-1.1-4.8-.3-5.5,0-1.9.8-3.1-2-1.2-2.8,3.1-1.6,9.1-.9,12,3.3l-2.2,2.2c-.6-.9-1.6-2-3.1-2.7ZM37.5,68.1c-.6.6-1.2,1.2-.9,2.2,1.1,3-2.8,6.9-5.8,5.8-.9-.3-1.6.3-2.2.9s-1.6.6-2.2,0-.6-1.6,0-2.2l8.9-8.9c1.4-1.4,3.6.8,2.2,2.2Z"/>
        </g>
      </g>
    </g>
  </g>
</svg>