<?xml version="1.0" encoding="UTF-8"?><svg id="thai-noodles" xmlns="http://www.w3.org/2000/svg" viewBox="0 0 392.15 392.15"><path d="m148.57,191.9c-.83,0-1.5-.67-1.5-1.5V54.4c0-.83.67-1.5,1.5-1.5s1.5.67,1.5,1.5v136c0,.83-.67,1.5-1.5,1.5Z" fill="#fa5b45" stroke-width="0"/><path d="m264.7,53.27L0,57.04v-18l264.7,3.77v10.46Z" fill="#fdbab1" stroke-width="0"/><path d="m166.88,191.33c-.83,0-1.5-.67-1.5-1.5V51.32c0-4.65-3.78-8.43-8.43-8.43h-.67c-.83,0-1.5-.67-1.5-1.5s.67-1.5,1.5-1.5h.67c6.3,0,11.43,5.13,11.43,11.43v138.51c0,.83-.67,1.5-1.5,1.5h0Z" fill="#fa5b45" stroke-width="0"/><path d="m184.55,191.33c-.83,0-1.5-.67-1.5-1.5V51.32c0-4.65-3.78-8.43-8.43-8.43h-18.34c-.83,0-1.5-.67-1.5-1.5s.67-1.5,1.5-1.5h18.34c6.3,0,11.43,5.13,11.43,11.43v138.51c0,.83-.67,1.5-1.5,1.5h0Z" fill="#fa5b45" stroke-width="0"/><path d="m202.23,191.33c-.83,0-1.5-.67-1.5-1.5V51.32c0-4.65-3.78-8.43-8.43-8.43h-36.01c-.83,0-1.5-.67-1.5-1.5s.67-1.5,1.5-1.5h36.01c6.3,0,11.43,5.13,11.43,11.43v138.51c0,.83-.67,1.5-1.5,1.5h0Z" fill="#fa5b45" stroke-width="0"/><path d="m219.9,191.33c-.83,0-1.5-.67-1.5-1.5V51.32c0-4.65-3.78-8.43-8.43-8.43h-53.68c-.83,0-1.5-.67-1.5-1.5s.67-1.5,1.5-1.5h53.68c6.3,0,11.43,5.13,11.43,11.43v138.51c0,.83-.67,1.5-1.5,1.5h0Z" fill="#fa5b45" stroke-width="0"/><path d="m237.57,191.33c-.83,0-1.5-.67-1.5-1.5V51.32c0-4.65-3.78-8.43-8.43-8.43h-71.35c-.83,0-1.5-.67-1.5-1.5s.67-1.5,1.5-1.5h71.35c6.3,0,11.43,5.13,11.43,11.43v138.51c0,.83-.67,1.5-1.5,1.5h0Z" fill="#fa5b45" stroke-width="0"/><path d="m255.24,191.33c-.83,0-1.5-.67-1.5-1.5V51.32c0-4.65-3.78-8.43-8.43-8.43h-89.02c-.83,0-1.5-.67-1.5-1.5s.67-1.5,1.5-1.5h89.02c6.3,0,11.43,5.13,11.43,11.43v138.51c0,.83-.67,1.5-1.5,1.5h0Z" fill="#fa5b45" stroke-width="0"/><path d="m264.5,52.06L.79,29.01l1.82-17.91,262.95,30.54-1.06,10.41Z" fill="#fc8e7f" stroke-width="0"/><circle cx="307.05" cy="139.47" r="21.77" fill="#fecfc9" stroke-width="0"/><circle cx="258.48" cy="186.68" r="21.77" fill="#fecfc9" stroke-width="0"/><path d="m299.19,360.84H121.76c-8.6,0-16.4-5.01-19.99-12.82L28.8,189.25h363.35l-72.97,158.78c-3.59,7.81-11.4,12.82-19.99,12.82h0Z" fill="#f6edea" stroke-width="0"/><path d="m135.73,360.84h149.49v20.2h-149.49v-20.2Z" fill="#fecfc9" stroke-width="0"/><path d="m244.49,256.36c-35.9,9.81-57.06,46.86-47.25,82.77,35.9-9.81,57.06-46.86,47.25-82.77Z" fill="#272829" stroke-width="0"/><path d="m274.04,282.83c-36.8-5.59-71.16,19.71-76.75,56.51,36.8,5.59,71.16-19.71,76.75-56.51Z" fill="#272829" stroke-width="0"/><path d="m185.51,246.63l12.11-5.58v98.46l-12.11-5.58c-45.77-21.09-45.77-66.21,0-87.3Z" fill="#ff4639" stroke-width="0"/><path d="m197.62,277.38l-50.71-49.38h36.79c7.69,0,13.92,6.23,13.92,13.92v35.46Zm-13.78-50.98h-8.38c0-9.07,7.35-16.42,16.42-16.42h8.38c0,9.07-7.35,16.42-16.42,16.42Z" fill="#ff4639" stroke-width="0"/><path d="m116.28,174.65c22.17-17.44,11.97-36.86,11.97-36.86" fill="none" stroke="#23754e" stroke-miterlimit="10" stroke-width="3"/><path d="m165.67,172.48c-14.67,4.96-30.06,2.43-42.04-5.52,4.69-13.59,15.38-24.94,30.05-29.9s30.06-2.43,42.04,5.52c-4.69,13.59-15.38,24.94-30.05,29.9Zm-63.39-48.45c5.91,10.8,16.27,17.6,27.55,19.4,4.57-10.47,4.43-22.87-1.48-33.66-5.91-10.8-16.27-17.6-27.55-19.4-4.57,10.47-4.43,22.86,1.48,33.66Z" fill="#2e7c57" stroke-width="0"/></svg>