<?xml version="1.0" encoding="UTF-8"?><svg id="thai-noodles" xmlns="http://www.w3.org/2000/svg" viewBox="0 0 392.15 392.15"><g id="bowl-o-noodles"><g id="ball"><circle cx="307.05" cy="139.47" r="21.77" transform="translate(-8.69 257.96) rotate(-45)" fill="#737373" stroke-width="0"/></g><g id="full-bowl"><path d="m280.09,189.25c.1-.84.16-1.69.16-2.56,0-12.02-9.75-21.77-21.77-21.77-.59,0-1.17.03-1.74.08V53.38l7.96-.11v-3.1l.87-8.52L2.61,11.1.79,29.01l137.21,11.99L0,39.04v18l147.07-2.09v84.94c-6.02,3.09-11.16,7.34-15.25,12.38.57-4.79-.15-8.87-.92-11.59,3.42-9.85,2.85-21.04-2.55-30.9-5.91-10.8-16.27-17.6-27.55-19.4-4.57,10.47-4.43,22.86,1.48,33.66,5.67,10.36,15.43,17.02,26.18,19.14,1.41,6.53,1.44,18.85-13.11,30.29l1.86,2.36c3.31-2.61,5.91-5.26,7.96-7.91,6.58,4.03,14.1,6.46,21.91,6.99v14.34H28.8l72.97,158.78c3.59,7.81,11.4,12.81,19.99,12.82h13.97v20.2h149.49v-20.2h13.97c8.59,0,16.4-5.01,19.99-12.81l72.97-158.78h-112.05Zm-94.04-30.21c4.29-4.8,7.58-10.4,9.67-16.46-3.03-2.01-6.27-3.67-9.67-4.95V54.39l14.67-.21v135.07h-14.67v-30.21Zm17.67,30.21V54.14l14.67-.21v135.32h-14.67Zm32.34,0h-14.67V53.89l14.67-.21v135.57Zm-53.01-134.81v82.18c-4.7-1.43-9.65-2.15-14.67-2.08V54.64l14.67-.21Zm-14.67,117.04c5.57-2.26,10.49-5.48,14.67-9.38v27.15h-14.67v-17.77Zm85.36-6.03c-6.42,1.43-11.77,5.69-14.67,11.4V53.63l14.67-.21v112.02Zm-103.67-110.54l15.31-.22v79.99c-3.9.3-7.82,1.08-11.7,2.39-1.24.42-2.44.9-3.61,1.41V54.9Zm0,120.11c5.07.02,10.23-.76,15.31-2.44v16.68h-15.31v-14.24Z" fill="#737373" stroke-width="0"/></g></g></svg>